<?xml version="1.0" encoding="utf-8" standalone="no"?>
<!DOCTYPE svg PUBLIC "-//W3C//DTD SVG 1.1//EN"
  "http://www.w3.org/Graphics/SVG/1.1/DTD/svg11.dtd">
<svg xmlns:xlink="http://www.w3.org/1999/xlink" width="864pt" height="360pt" viewBox="0 0 864 360" xmlns="http://www.w3.org/2000/svg" version="1.1">
 <metadata>
  <rdf:RDF xmlns:dc="http://purl.org/dc/elements/1.1/" xmlns:cc="http://creativecommons.org/ns#" xmlns:rdf="http://www.w3.org/1999/02/22-rdf-syntax-ns#">
   <cc:Work>
    <dc:type rdf:resource="http://purl.org/dc/dcmitype/StillImage"/>
    <dc:date>2023-05-23T08:55:58.174402</dc:date>
    <dc:format>image/svg+xml</dc:format>
    <dc:creator>
     <cc:Agent>
      <dc:title>Matplotlib v3.7.1, https://matplotlib.org/</dc:title>
     </cc:Agent>
    </dc:creator>
   </cc:Work>
  </rdf:RDF>
 </metadata>
 <defs>
  <style type="text/css">*{stroke-linejoin: round; stroke-linecap: butt}</style>
 </defs>
 <g id="figure_1">
  <g id="patch_1">
   <path d="M 0 360 
L 864 360 
L 864 0 
L 0 0 
L 0 360 
z
" style="fill: none; opacity: 0"/>
  </g>
  <g id="axes_1">
   <g id="patch_2">
    <path d="M 108 320.4 
L 777.6 320.4 
L 777.6 43.2 
L 108 43.2 
L 108 320.4 
z
" style="fill: none; opacity: 0"/>
   </g>
   <g id="matplotlib.axis_1">
    <g id="xtick_1">
     <g id="line2d_1">
      <path d="M 117.477191 320.4 
L 117.477191 43.2 
" clip-path="url(#p70c82698ce)" style="fill: none; stroke-dasharray: 5.12,1.28,0.8,1.28; stroke-dashoffset: 0; stroke: #b0b0b0; stroke-width: 0.8"/>
     </g>
     <g id="line2d_2">
      <defs>
       <path id="m5099da44e5" d="M 0 0 
L 0 3.5 
" style="stroke: #a9a9a9; stroke-width: 0.8"/>
      </defs>
      <g>
       <use xlink:href="#m5099da44e5" x="117.477191" y="320.4" style="fill: #a9a9a9; stroke: #a9a9a9; stroke-width: 0.8"/>
      </g>
     </g>
     <g id="text_1">
      <!-- 2021-07 -->
      <g style="fill: #a9a9a9" transform="translate(96.585785 334.998438) scale(0.1 -0.1)">
       <defs>
        <path id="DejaVuSans-32" d="M 1228 531 
L 3431 531 
L 3431 0 
L 469 0 
L 469 531 
Q 828 903 1448 1529 
Q 2069 2156 2228 2338 
Q 2531 2678 2651 2914 
Q 2772 3150 2772 3378 
Q 2772 3750 2511 3984 
Q 2250 4219 1831 4219 
Q 1534 4219 1204 4116 
Q 875 4013 500 3803 
L 500 4441 
Q 881 4594 1212 4672 
Q 1544 4750 1819 4750 
Q 2544 4750 2975 4387 
Q 3406 4025 3406 3419 
Q 3406 3131 3298 2873 
Q 3191 2616 2906 2266 
Q 2828 2175 2409 1742 
Q 1991 1309 1228 531 
z
" transform="scale(0.015625)"/>
        <path id="DejaVuSans-30" d="M 2034 4250 
Q 1547 4250 1301 3770 
Q 1056 3291 1056 2328 
Q 1056 1369 1301 889 
Q 1547 409 2034 409 
Q 2525 409 2770 889 
Q 3016 1369 3016 2328 
Q 3016 3291 2770 3770 
Q 2525 4250 2034 4250 
z
M 2034 4750 
Q 2819 4750 3233 4129 
Q 3647 3509 3647 2328 
Q 3647 1150 3233 529 
Q 2819 -91 2034 -91 
Q 1250 -91 836 529 
Q 422 1150 422 2328 
Q 422 3509 836 4129 
Q 1250 4750 2034 4750 
z
" transform="scale(0.015625)"/>
        <path id="DejaVuSans-31" d="M 794 531 
L 1825 531 
L 1825 4091 
L 703 3866 
L 703 4441 
L 1819 4666 
L 2450 4666 
L 2450 531 
L 3481 531 
L 3481 0 
L 794 0 
L 794 531 
z
" transform="scale(0.015625)"/>
        <path id="DejaVuSans-2d" d="M 313 2009 
L 1997 2009 
L 1997 1497 
L 313 1497 
L 313 2009 
z
" transform="scale(0.015625)"/>
        <path id="DejaVuSans-37" d="M 525 4666 
L 3525 4666 
L 3525 4397 
L 1831 0 
L 1172 0 
L 2766 4134 
L 525 4134 
L 525 4666 
z
" transform="scale(0.015625)"/>
       </defs>
       <use xlink:href="#DejaVuSans-32"/>
       <use xlink:href="#DejaVuSans-30" x="63.623047"/>
       <use xlink:href="#DejaVuSans-32" x="127.246094"/>
       <use xlink:href="#DejaVuSans-31" x="190.869141"/>
       <use xlink:href="#DejaVuSans-2d" x="254.492188"/>
       <use xlink:href="#DejaVuSans-30" x="290.576172"/>
       <use xlink:href="#DejaVuSans-37" x="354.199219"/>
      </g>
     </g>
    </g>
    <g id="xtick_2">
     <g id="line2d_3">
      <path d="M 201.313881 320.4 
L 201.313881 43.2 
" clip-path="url(#p70c82698ce)" style="fill: none; stroke-dasharray: 5.12,1.28,0.8,1.28; stroke-dashoffset: 0; stroke: #b0b0b0; stroke-width: 0.8"/>
     </g>
     <g id="line2d_4">
      <g>
       <use xlink:href="#m5099da44e5" x="201.313881" y="320.4" style="fill: #a9a9a9; stroke: #a9a9a9; stroke-width: 0.8"/>
      </g>
     </g>
     <g id="text_2">
      <!-- 2021-10 -->
      <g style="fill: #a9a9a9" transform="translate(180.422475 334.998438) scale(0.1 -0.1)">
       <use xlink:href="#DejaVuSans-32"/>
       <use xlink:href="#DejaVuSans-30" x="63.623047"/>
       <use xlink:href="#DejaVuSans-32" x="127.246094"/>
       <use xlink:href="#DejaVuSans-31" x="190.869141"/>
       <use xlink:href="#DejaVuSans-2d" x="254.492188"/>
       <use xlink:href="#DejaVuSans-31" x="290.576172"/>
       <use xlink:href="#DejaVuSans-30" x="354.199219"/>
      </g>
     </g>
    </g>
    <g id="xtick_3">
     <g id="line2d_5">
      <path d="M 285.150572 320.4 
L 285.150572 43.2 
" clip-path="url(#p70c82698ce)" style="fill: none; stroke-dasharray: 5.12,1.28,0.8,1.28; stroke-dashoffset: 0; stroke: #b0b0b0; stroke-width: 0.8"/>
     </g>
     <g id="line2d_6">
      <g>
       <use xlink:href="#m5099da44e5" x="285.150572" y="320.4" style="fill: #a9a9a9; stroke: #a9a9a9; stroke-width: 0.8"/>
      </g>
     </g>
     <g id="text_3">
      <!-- 2022-01 -->
      <g style="fill: #a9a9a9" transform="translate(264.259165 334.998438) scale(0.1 -0.1)">
       <use xlink:href="#DejaVuSans-32"/>
       <use xlink:href="#DejaVuSans-30" x="63.623047"/>
       <use xlink:href="#DejaVuSans-32" x="127.246094"/>
       <use xlink:href="#DejaVuSans-32" x="190.869141"/>
       <use xlink:href="#DejaVuSans-2d" x="254.492188"/>
       <use xlink:href="#DejaVuSans-30" x="290.576172"/>
       <use xlink:href="#DejaVuSans-31" x="354.199219"/>
      </g>
     </g>
    </g>
    <g id="xtick_4">
     <g id="line2d_7">
      <path d="M 367.164725 320.4 
L 367.164725 43.2 
" clip-path="url(#p70c82698ce)" style="fill: none; stroke-dasharray: 5.12,1.28,0.8,1.28; stroke-dashoffset: 0; stroke: #b0b0b0; stroke-width: 0.8"/>
     </g>
     <g id="line2d_8">
      <g>
       <use xlink:href="#m5099da44e5" x="367.164725" y="320.4" style="fill: #a9a9a9; stroke: #a9a9a9; stroke-width: 0.8"/>
      </g>
     </g>
     <g id="text_4">
      <!-- 2022-04 -->
      <g style="fill: #a9a9a9" transform="translate(346.273319 334.998438) scale(0.1 -0.1)">
       <defs>
        <path id="DejaVuSans-34" d="M 2419 4116 
L 825 1625 
L 2419 1625 
L 2419 4116 
z
M 2253 4666 
L 3047 4666 
L 3047 1625 
L 3713 1625 
L 3713 1100 
L 3047 1100 
L 3047 0 
L 2419 0 
L 2419 1100 
L 313 1100 
L 313 1709 
L 2253 4666 
z
" transform="scale(0.015625)"/>
       </defs>
       <use xlink:href="#DejaVuSans-32"/>
       <use xlink:href="#DejaVuSans-30" x="63.623047"/>
       <use xlink:href="#DejaVuSans-32" x="127.246094"/>
       <use xlink:href="#DejaVuSans-32" x="190.869141"/>
       <use xlink:href="#DejaVuSans-2d" x="254.492188"/>
       <use xlink:href="#DejaVuSans-30" x="290.576172"/>
       <use xlink:href="#DejaVuSans-34" x="354.199219"/>
      </g>
     </g>
    </g>
    <g id="xtick_5">
     <g id="line2d_9">
      <path d="M 450.090147 320.4 
L 450.090147 43.2 
" clip-path="url(#p70c82698ce)" style="fill: none; stroke-dasharray: 5.12,1.28,0.8,1.28; stroke-dashoffset: 0; stroke: #b0b0b0; stroke-width: 0.8"/>
     </g>
     <g id="line2d_10">
      <g>
       <use xlink:href="#m5099da44e5" x="450.090147" y="320.4" style="fill: #a9a9a9; stroke: #a9a9a9; stroke-width: 0.8"/>
      </g>
     </g>
     <g id="text_5">
      <!-- 2022-07 -->
      <g style="fill: #a9a9a9" transform="translate(429.198741 334.998438) scale(0.1 -0.1)">
       <use xlink:href="#DejaVuSans-32"/>
       <use xlink:href="#DejaVuSans-30" x="63.623047"/>
       <use xlink:href="#DejaVuSans-32" x="127.246094"/>
       <use xlink:href="#DejaVuSans-32" x="190.869141"/>
       <use xlink:href="#DejaVuSans-2d" x="254.492188"/>
       <use xlink:href="#DejaVuSans-30" x="290.576172"/>
       <use xlink:href="#DejaVuSans-37" x="354.199219"/>
      </g>
     </g>
    </g>
    <g id="xtick_6">
     <g id="line2d_11">
      <path d="M 533.926837 320.4 
L 533.926837 43.2 
" clip-path="url(#p70c82698ce)" style="fill: none; stroke-dasharray: 5.12,1.28,0.8,1.28; stroke-dashoffset: 0; stroke: #b0b0b0; stroke-width: 0.8"/>
     </g>
     <g id="line2d_12">
      <g>
       <use xlink:href="#m5099da44e5" x="533.926837" y="320.4" style="fill: #a9a9a9; stroke: #a9a9a9; stroke-width: 0.8"/>
      </g>
     </g>
     <g id="text_6">
      <!-- 2022-10 -->
      <g style="fill: #a9a9a9" transform="translate(513.035431 334.998438) scale(0.1 -0.1)">
       <use xlink:href="#DejaVuSans-32"/>
       <use xlink:href="#DejaVuSans-30" x="63.623047"/>
       <use xlink:href="#DejaVuSans-32" x="127.246094"/>
       <use xlink:href="#DejaVuSans-32" x="190.869141"/>
       <use xlink:href="#DejaVuSans-2d" x="254.492188"/>
       <use xlink:href="#DejaVuSans-31" x="290.576172"/>
       <use xlink:href="#DejaVuSans-30" x="354.199219"/>
      </g>
     </g>
    </g>
    <g id="xtick_7">
     <g id="line2d_13">
      <path d="M 617.763527 320.4 
L 617.763527 43.2 
" clip-path="url(#p70c82698ce)" style="fill: none; stroke-dasharray: 5.12,1.28,0.8,1.28; stroke-dashoffset: 0; stroke: #b0b0b0; stroke-width: 0.8"/>
     </g>
     <g id="line2d_14">
      <g>
       <use xlink:href="#m5099da44e5" x="617.763527" y="320.4" style="fill: #a9a9a9; stroke: #a9a9a9; stroke-width: 0.8"/>
      </g>
     </g>
     <g id="text_7">
      <!-- 2023-01 -->
      <g style="fill: #a9a9a9" transform="translate(596.872121 334.998438) scale(0.1 -0.1)">
       <defs>
        <path id="DejaVuSans-33" d="M 2597 2516 
Q 3050 2419 3304 2112 
Q 3559 1806 3559 1356 
Q 3559 666 3084 287 
Q 2609 -91 1734 -91 
Q 1441 -91 1130 -33 
Q 819 25 488 141 
L 488 750 
Q 750 597 1062 519 
Q 1375 441 1716 441 
Q 2309 441 2620 675 
Q 2931 909 2931 1356 
Q 2931 1769 2642 2001 
Q 2353 2234 1838 2234 
L 1294 2234 
L 1294 2753 
L 1863 2753 
Q 2328 2753 2575 2939 
Q 2822 3125 2822 3475 
Q 2822 3834 2567 4026 
Q 2313 4219 1838 4219 
Q 1578 4219 1281 4162 
Q 984 4106 628 3988 
L 628 4550 
Q 988 4650 1302 4700 
Q 1616 4750 1894 4750 
Q 2613 4750 3031 4423 
Q 3450 4097 3450 3541 
Q 3450 3153 3228 2886 
Q 3006 2619 2597 2516 
z
" transform="scale(0.015625)"/>
       </defs>
       <use xlink:href="#DejaVuSans-32"/>
       <use xlink:href="#DejaVuSans-30" x="63.623047"/>
       <use xlink:href="#DejaVuSans-32" x="127.246094"/>
       <use xlink:href="#DejaVuSans-33" x="190.869141"/>
       <use xlink:href="#DejaVuSans-2d" x="254.492188"/>
       <use xlink:href="#DejaVuSans-30" x="290.576172"/>
       <use xlink:href="#DejaVuSans-31" x="354.199219"/>
      </g>
     </g>
    </g>
    <g id="xtick_8">
     <g id="line2d_15">
      <path d="M 699.777681 320.4 
L 699.777681 43.2 
" clip-path="url(#p70c82698ce)" style="fill: none; stroke-dasharray: 5.12,1.28,0.8,1.28; stroke-dashoffset: 0; stroke: #b0b0b0; stroke-width: 0.8"/>
     </g>
     <g id="line2d_16">
      <g>
       <use xlink:href="#m5099da44e5" x="699.777681" y="320.4" style="fill: #a9a9a9; stroke: #a9a9a9; stroke-width: 0.8"/>
      </g>
     </g>
     <g id="text_8">
      <!-- 2023-04 -->
      <g style="fill: #a9a9a9" transform="translate(678.886275 334.998438) scale(0.1 -0.1)">
       <use xlink:href="#DejaVuSans-32"/>
       <use xlink:href="#DejaVuSans-30" x="63.623047"/>
       <use xlink:href="#DejaVuSans-32" x="127.246094"/>
       <use xlink:href="#DejaVuSans-33" x="190.869141"/>
       <use xlink:href="#DejaVuSans-2d" x="254.492188"/>
       <use xlink:href="#DejaVuSans-30" x="290.576172"/>
       <use xlink:href="#DejaVuSans-34" x="354.199219"/>
      </g>
     </g>
    </g>
   </g>
   <g id="matplotlib.axis_2">
    <g id="ytick_1">
     <g id="line2d_17">
      <path d="M 108 307.857574 
L 777.6 307.857574 
" clip-path="url(#p70c82698ce)" style="fill: none; stroke-dasharray: 5.12,1.28,0.8,1.28; stroke-dashoffset: 0; stroke: #b0b0b0; stroke-width: 0.8"/>
     </g>
     <g id="line2d_18">
      <defs>
       <path id="mb8bd1ad5a6" d="M 0 0 
L -3.5 0 
" style="stroke: #a9a9a9; stroke-width: 0.8"/>
      </defs>
      <g>
       <use xlink:href="#mb8bd1ad5a6" x="108" y="307.857574" style="fill: #a9a9a9; stroke: #a9a9a9; stroke-width: 0.8"/>
      </g>
     </g>
     <g id="text_9">
      <!-- 0 -->
      <g style="fill: #a9a9a9" transform="translate(94.6375 311.656792) scale(0.1 -0.1)">
       <use xlink:href="#DejaVuSans-30"/>
      </g>
     </g>
    </g>
    <g id="ytick_2">
     <g id="line2d_19">
      <path d="M 108 279.070733 
L 777.6 279.070733 
" clip-path="url(#p70c82698ce)" style="fill: none; stroke-dasharray: 5.12,1.28,0.8,1.28; stroke-dashoffset: 0; stroke: #b0b0b0; stroke-width: 0.8"/>
     </g>
     <g id="line2d_20">
      <g>
       <use xlink:href="#mb8bd1ad5a6" x="108" y="279.070733" style="fill: #a9a9a9; stroke: #a9a9a9; stroke-width: 0.8"/>
      </g>
     </g>
     <g id="text_10">
      <!-- 500 -->
      <g style="fill: #a9a9a9" transform="translate(81.9125 282.869952) scale(0.1 -0.1)">
       <defs>
        <path id="DejaVuSans-35" d="M 691 4666 
L 3169 4666 
L 3169 4134 
L 1269 4134 
L 1269 2991 
Q 1406 3038 1543 3061 
Q 1681 3084 1819 3084 
Q 2600 3084 3056 2656 
Q 3513 2228 3513 1497 
Q 3513 744 3044 326 
Q 2575 -91 1722 -91 
Q 1428 -91 1123 -41 
Q 819 9 494 109 
L 494 744 
Q 775 591 1075 516 
Q 1375 441 1709 441 
Q 2250 441 2565 725 
Q 2881 1009 2881 1497 
Q 2881 1984 2565 2268 
Q 2250 2553 1709 2553 
Q 1456 2553 1204 2497 
Q 953 2441 691 2322 
L 691 4666 
z
" transform="scale(0.015625)"/>
       </defs>
       <use xlink:href="#DejaVuSans-35"/>
       <use xlink:href="#DejaVuSans-30" x="63.623047"/>
       <use xlink:href="#DejaVuSans-30" x="127.246094"/>
      </g>
     </g>
    </g>
    <g id="ytick_3">
     <g id="line2d_21">
      <path d="M 108 250.283893 
L 777.6 250.283893 
" clip-path="url(#p70c82698ce)" style="fill: none; stroke-dasharray: 5.12,1.28,0.8,1.28; stroke-dashoffset: 0; stroke: #b0b0b0; stroke-width: 0.8"/>
     </g>
     <g id="line2d_22">
      <g>
       <use xlink:href="#mb8bd1ad5a6" x="108" y="250.283893" style="fill: #a9a9a9; stroke: #a9a9a9; stroke-width: 0.8"/>
      </g>
     </g>
     <g id="text_11">
      <!-- 1000 -->
      <g style="fill: #a9a9a9" transform="translate(75.55 254.083112) scale(0.1 -0.1)">
       <use xlink:href="#DejaVuSans-31"/>
       <use xlink:href="#DejaVuSans-30" x="63.623047"/>
       <use xlink:href="#DejaVuSans-30" x="127.246094"/>
       <use xlink:href="#DejaVuSans-30" x="190.869141"/>
      </g>
     </g>
    </g>
    <g id="ytick_4">
     <g id="line2d_23">
      <path d="M 108 221.497053 
L 777.6 221.497053 
" clip-path="url(#p70c82698ce)" style="fill: none; stroke-dasharray: 5.12,1.28,0.8,1.28; stroke-dashoffset: 0; stroke: #b0b0b0; stroke-width: 0.8"/>
     </g>
     <g id="line2d_24">
      <g>
       <use xlink:href="#mb8bd1ad5a6" x="108" y="221.497053" style="fill: #a9a9a9; stroke: #a9a9a9; stroke-width: 0.8"/>
      </g>
     </g>
     <g id="text_12">
      <!-- 1500 -->
      <g style="fill: #a9a9a9" transform="translate(75.55 225.296272) scale(0.1 -0.1)">
       <use xlink:href="#DejaVuSans-31"/>
       <use xlink:href="#DejaVuSans-35" x="63.623047"/>
       <use xlink:href="#DejaVuSans-30" x="127.246094"/>
       <use xlink:href="#DejaVuSans-30" x="190.869141"/>
      </g>
     </g>
    </g>
    <g id="ytick_5">
     <g id="line2d_25">
      <path d="M 108 192.710212 
L 777.6 192.710212 
" clip-path="url(#p70c82698ce)" style="fill: none; stroke-dasharray: 5.12,1.28,0.8,1.28; stroke-dashoffset: 0; stroke: #b0b0b0; stroke-width: 0.8"/>
     </g>
     <g id="line2d_26">
      <g>
       <use xlink:href="#mb8bd1ad5a6" x="108" y="192.710212" style="fill: #a9a9a9; stroke: #a9a9a9; stroke-width: 0.8"/>
      </g>
     </g>
     <g id="text_13">
      <!-- 2000 -->
      <g style="fill: #a9a9a9" transform="translate(75.55 196.509431) scale(0.1 -0.1)">
       <use xlink:href="#DejaVuSans-32"/>
       <use xlink:href="#DejaVuSans-30" x="63.623047"/>
       <use xlink:href="#DejaVuSans-30" x="127.246094"/>
       <use xlink:href="#DejaVuSans-30" x="190.869141"/>
      </g>
     </g>
    </g>
    <g id="ytick_6">
     <g id="line2d_27">
      <path d="M 108 163.923372 
L 777.6 163.923372 
" clip-path="url(#p70c82698ce)" style="fill: none; stroke-dasharray: 5.12,1.28,0.8,1.28; stroke-dashoffset: 0; stroke: #b0b0b0; stroke-width: 0.8"/>
     </g>
     <g id="line2d_28">
      <g>
       <use xlink:href="#mb8bd1ad5a6" x="108" y="163.923372" style="fill: #a9a9a9; stroke: #a9a9a9; stroke-width: 0.8"/>
      </g>
     </g>
     <g id="text_14">
      <!-- 2500 -->
      <g style="fill: #a9a9a9" transform="translate(75.55 167.722591) scale(0.1 -0.1)">
       <use xlink:href="#DejaVuSans-32"/>
       <use xlink:href="#DejaVuSans-35" x="63.623047"/>
       <use xlink:href="#DejaVuSans-30" x="127.246094"/>
       <use xlink:href="#DejaVuSans-30" x="190.869141"/>
      </g>
     </g>
    </g>
    <g id="ytick_7">
     <g id="line2d_29">
      <path d="M 108 135.136532 
L 777.6 135.136532 
" clip-path="url(#p70c82698ce)" style="fill: none; stroke-dasharray: 5.12,1.28,0.8,1.28; stroke-dashoffset: 0; stroke: #b0b0b0; stroke-width: 0.8"/>
     </g>
     <g id="line2d_30">
      <g>
       <use xlink:href="#mb8bd1ad5a6" x="108" y="135.136532" style="fill: #a9a9a9; stroke: #a9a9a9; stroke-width: 0.8"/>
      </g>
     </g>
     <g id="text_15">
      <!-- 3000 -->
      <g style="fill: #a9a9a9" transform="translate(75.55 138.935751) scale(0.1 -0.1)">
       <use xlink:href="#DejaVuSans-33"/>
       <use xlink:href="#DejaVuSans-30" x="63.623047"/>
       <use xlink:href="#DejaVuSans-30" x="127.246094"/>
       <use xlink:href="#DejaVuSans-30" x="190.869141"/>
      </g>
     </g>
    </g>
    <g id="ytick_8">
     <g id="line2d_31">
      <path d="M 108 106.349692 
L 777.6 106.349692 
" clip-path="url(#p70c82698ce)" style="fill: none; stroke-dasharray: 5.12,1.28,0.8,1.28; stroke-dashoffset: 0; stroke: #b0b0b0; stroke-width: 0.8"/>
     </g>
     <g id="line2d_32">
      <g>
       <use xlink:href="#mb8bd1ad5a6" x="108" y="106.349692" style="fill: #a9a9a9; stroke: #a9a9a9; stroke-width: 0.8"/>
      </g>
     </g>
     <g id="text_16">
      <!-- 3500 -->
      <g style="fill: #a9a9a9" transform="translate(75.55 110.14891) scale(0.1 -0.1)">
       <use xlink:href="#DejaVuSans-33"/>
       <use xlink:href="#DejaVuSans-35" x="63.623047"/>
       <use xlink:href="#DejaVuSans-30" x="127.246094"/>
       <use xlink:href="#DejaVuSans-30" x="190.869141"/>
      </g>
     </g>
    </g>
    <g id="ytick_9">
     <g id="line2d_33">
      <path d="M 108 77.562851 
L 777.6 77.562851 
" clip-path="url(#p70c82698ce)" style="fill: none; stroke-dasharray: 5.12,1.28,0.8,1.28; stroke-dashoffset: 0; stroke: #b0b0b0; stroke-width: 0.8"/>
     </g>
     <g id="line2d_34">
      <g>
       <use xlink:href="#mb8bd1ad5a6" x="108" y="77.562851" style="fill: #a9a9a9; stroke: #a9a9a9; stroke-width: 0.8"/>
      </g>
     </g>
     <g id="text_17">
      <!-- 4000 -->
      <g style="fill: #a9a9a9" transform="translate(75.55 81.36207) scale(0.1 -0.1)">
       <use xlink:href="#DejaVuSans-34"/>
       <use xlink:href="#DejaVuSans-30" x="63.623047"/>
       <use xlink:href="#DejaVuSans-30" x="127.246094"/>
       <use xlink:href="#DejaVuSans-30" x="190.869141"/>
      </g>
     </g>
    </g>
    <g id="ytick_10">
     <g id="line2d_35">
      <path d="M 108 48.776011 
L 777.6 48.776011 
" clip-path="url(#p70c82698ce)" style="fill: none; stroke-dasharray: 5.12,1.28,0.8,1.28; stroke-dashoffset: 0; stroke: #b0b0b0; stroke-width: 0.8"/>
     </g>
     <g id="line2d_36">
      <g>
       <use xlink:href="#mb8bd1ad5a6" x="108" y="48.776011" style="fill: #a9a9a9; stroke: #a9a9a9; stroke-width: 0.8"/>
      </g>
     </g>
     <g id="text_18">
      <!-- 4500 -->
      <g style="fill: #a9a9a9" transform="translate(75.55 52.57523) scale(0.1 -0.1)">
       <use xlink:href="#DejaVuSans-34"/>
       <use xlink:href="#DejaVuSans-35" x="63.623047"/>
       <use xlink:href="#DejaVuSans-30" x="127.246094"/>
       <use xlink:href="#DejaVuSans-30" x="190.869141"/>
      </g>
     </g>
    </g>
   </g>
   <g id="line2d_37">
    <path d="M 138.436364 307.684853 
L 142.081437 307.396984 
L 142.992705 307.281837 
L 143.903974 307.281837 
L 144.815242 306.936395 
L 146.637779 306.821247 
L 153.016658 305.6122 
L 154.839194 305.497053 
L 155.750463 305.324332 
L 158.484268 305.151611 
L 159.395536 304.691021 
L 160.306805 304.460727 
L 161.218073 303.4244 
L 162.129341 302.848663 
L 163.04061 300.948732 
L 163.951878 300.833585 
L 164.863146 300.200274 
L 166.685683 299.394243 
L 169.419488 297.264016 
L 171.242025 296.457985 
L 172.153293 296.112543 
L 173.064562 295.479232 
L 174.887099 294.730775 
L 175.798367 294.270185 
L 176.709635 293.982317 
L 177.620904 292.600548 
L 178.532172 291.909664 
L 180.354709 290.988485 
L 185.822319 290.240027 
L 186.733587 290.067306 
L 188.556124 289.952159 
L 189.467392 289.779438 
L 190.378661 289.376422 
L 192.201198 289.318849 
L 193.112466 289.318849 
L 196.757539 288.915833 
L 198.580076 288.455243 
L 200.402613 288.052228 
L 207.69276 287.131049 
L 208.604028 286.670459 
L 209.515297 286.555312 
L 210.426565 286.20987 
L 212.249102 285.922001 
L 213.16037 285.864428 
L 214.071639 285.576559 
L 217.716712 285.058396 
L 219.539249 284.597807 
L 220.450517 284.482659 
L 221.361786 284.482659 
L 225.918127 283.906923 
L 228.651932 283.158465 
L 230.474469 282.985744 
L 231.385738 282.92817 
L 234.119543 282.410007 
L 235.030811 282.122138 
L 235.942079 280.970665 
L 238.675885 280.049486 
L 239.587153 279.819191 
L 240.498421 279.704044 
L 242.320958 278.955586 
L 243.232226 278.898012 
L 247.788568 277.746539 
L 248.699837 277.746539 
L 250.522373 277.516244 
L 253.256179 276.767786 
L 255.078715 276.422344 
L 255.989984 276.36477 
L 257.81252 275.616313 
L 258.723789 275.501165 
L 259.635057 275.098149 
L 261.457594 274.925428 
L 262.368862 274.867855 
L 265.102667 274.407265 
L 266.925204 274.119397 
L 271.481546 273.255792 
L 275.126619 271.874023 
L 276.037888 271.758876 
L 277.860425 271.183139 
L 279.682961 270.204387 
L 280.59423 269.62865 
L 281.505498 269.513502 
L 282.416766 269.225634 
L 283.328035 269.110487 
L 284.239303 268.880192 
L 285.150572 268.765045 
L 286.06184 268.362029 
L 287.884377 268.07416 
L 289.706913 267.268129 
L 290.618182 267.037834 
L 291.52945 266.922687 
L 293.351987 266.462097 
L 295.174524 266.059082 
L 296.085792 265.943934 
L 297.908329 265.195476 
L 298.819597 265.022755 
L 299.730866 264.677313 
L 300.642134 264.562166 
L 301.553402 264.15915 
L 302.464671 263.928855 
L 304.287207 263.813708 
L 306.109744 263.237971 
L 307.021013 263.122824 
L 307.932281 263.122824 
L 308.843549 262.719808 
L 311.577354 262.144071 
L 313.399891 262.086498 
L 314.311159 261.97135 
L 315.222428 261.97135 
L 317.044965 261.683482 
L 318.867501 260.87745 
L 328.891453 257.020014 
L 329.802722 256.559424 
L 330.71399 255.638245 
L 331.625259 254.256477 
L 332.536527 253.162577 
L 333.447795 252.932282 
L 334.359064 252.932282 
L 336.1816 251.665661 
L 337.092869 251.435367 
L 338.004137 250.974777 
L 338.915406 250.802056 
L 339.826674 250.053598 
L 340.737942 249.823304 
L 343.471747 248.614256 
L 344.383016 247.57793 
L 345.294284 246.253735 
L 346.205553 245.735572 
L 347.116821 244.353804 
L 348.028089 243.490199 
L 348.939358 243.087183 
L 349.850626 242.856888 
L 351.673163 241.820562 
L 352.584431 241.417546 
L 356.229505 238.884304 
L 357.140773 237.675257 
L 358.052041 235.717752 
L 358.96331 234.451131 
L 359.874578 233.81782 
L 360.785846 233.472378 
L 364.43092 230.536121 
L 365.342188 229.960384 
L 367.164725 228.463468 
L 368.075993 227.254421 
L 368.987262 226.448389 
L 371.721067 224.663605 
L 373.543604 223.512132 
L 374.454872 222.763674 
L 375.36614 222.533379 
L 378.099946 221.209184 
L 379.922482 220.230432 
L 380.833751 219.88499 
L 382.656287 218.3305 
L 383.567556 217.294174 
L 385.390093 216.1427 
L 386.301361 215.912406 
L 387.212629 215.451816 
L 388.123898 214.818506 
L 389.946434 213.897327 
L 390.857703 213.78218 
L 392.68024 212.861001 
L 393.591508 212.400411 
L 394.502776 211.536806 
L 395.414045 210.961069 
L 396.325313 210.673201 
L 397.236581 210.097464 
L 400.881655 208.370254 
L 401.792923 207.621796 
L 405.437997 206.470322 
L 406.349265 205.894585 
L 407.260533 205.721864 
L 409.08307 205.146127 
L 411.816875 204.167375 
L 414.55068 203.246196 
L 416.373217 202.958328 
L 418.195754 201.518986 
L 420.018291 200.712954 
L 422.752096 199.273612 
L 424.574633 198.813023 
L 425.485901 198.294859 
L 426.397169 198.064565 
L 429.130974 196.452502 
L 431.86478 195.876765 
L 434.598585 194.955586 
L 436.421121 193.976833 
L 437.33239 193.861686 
L 438.243658 193.516244 
L 439.154927 193.401097 
L 440.066195 193.170802 
L 442.8 191.328444 
L 443.711268 191.155723 
L 444.622537 190.867855 
L 445.533805 190.752707 
L 446.445073 190.464839 
L 447.356342 189.831528 
L 452.823952 188.161892 
L 453.73522 188.104318 
L 460.114099 185.974092 
L 461.025367 185.571076 
L 462.847904 185.052913 
L 463.759173 184.995339 
L 465.581709 184.592324 
L 466.492978 184.189308 
L 467.404246 184.016587 
L 470.138051 182.865113 
L 472.871856 181.540918 
L 473.783125 180.965182 
L 474.694393 180.734887 
L 477.428198 179.410692 
L 479.250735 179.007676 
L 481.073272 178.144071 
L 482.895808 177.683482 
L 483.807077 177.568334 
L 484.718345 176.992598 
L 485.629614 176.589582 
L 486.540882 176.416861 
L 488.363419 175.725977 
L 489.274687 175.553256 
L 490.185955 175.092666 
L 493.831029 174.574503 
L 495.653566 173.768472 
L 496.564834 173.077587 
L 497.476102 171.580672 
L 498.387371 171.350377 
L 500.209907 171.062509 
L 503.854981 169.335298 
L 504.766249 169.162577 
L 510.23386 166.686909 
L 511.145128 166.111172 
L 512.056396 165.76573 
L 514.790201 165.247567 
L 516.612738 164.383962 
L 517.524007 164.03852 
L 518.435275 163.923372 
L 522.080348 162.426456 
L 523.902885 161.274983 
L 524.814154 160.871967 
L 525.725422 160.75682 
L 526.63669 160.468951 
L 527.547959 160.411378 
L 531.193032 159.317478 
L 532.1043 159.259904 
L 533.015569 158.626594 
L 533.926837 158.396299 
L 536.660642 157.47512 
L 537.571911 157.244825 
L 538.483179 156.726662 
L 539.394447 156.438794 
L 540.305716 155.863057 
L 541.216984 155.517615 
L 542.128253 154.999452 
L 543.950789 154.366141 
L 544.862058 154.135846 
L 548.507131 152.408636 
L 549.4184 151.429883 
L 550.329668 150.854147 
L 551.240936 150.681426 
L 553.063473 149.357231 
L 553.974741 149.18451 
L 554.88601 147.917889 
L 555.797278 147.572447 
L 556.708547 146.939136 
L 557.619815 146.823989 
L 558.531083 146.248252 
L 559.442352 145.845236 
L 560.35362 145.672515 
L 561.264888 145.327073 
L 562.176157 144.636189 
L 563.087425 144.348321 
L 565.82123 142.62111 
L 569.466304 140.951474 
L 570.377572 140.836326 
L 572.200109 140.087868 
L 573.111377 139.569705 
L 574.022646 138.187937 
L 574.933914 137.324332 
L 575.845182 136.863742 
L 576.756451 136.691021 
L 578.578987 135.654695 
L 579.490256 135.481974 
L 581.312793 134.675942 
L 584.046598 133.582042 
L 585.869134 132.430569 
L 587.691671 130.588211 
L 588.60294 129.954901 
L 590.425476 128.976148 
L 591.336745 128.112543 
L 594.07055 126.03989 
L 594.981818 125.579301 
L 595.893087 124.658122 
L 596.804355 124.024812 
L 598.626892 123.449075 
L 599.53816 122.643043 
L 601.360697 121.779438 
L 602.271965 121.549143 
L 603.183234 120.915833 
L 604.094502 120.685538 
L 606.828307 119.361343 
L 607.739575 118.728033 
L 608.650844 118.267443 
L 610.473381 117.74928 
L 611.384649 117.231117 
L 617.763527 115.100891 
L 618.674796 114.352433 
L 622.319869 113.085812 
L 623.231138 112.855517 
L 624.142406 112.222207 
L 626.876211 111.01316 
L 627.78748 110.379849 
L 628.698748 109.91926 
L 630.521285 106.579986 
L 632.343821 104.564907 
L 633.25509 103.931597 
L 635.988895 102.780123 
L 636.900163 102.492255 
L 637.811432 102.377108 
L 638.7227 101.916518 
L 639.633968 101.686223 
L 642.367774 100.765045 
L 644.19031 100.07416 
L 646.012847 98.807539 
L 648.746652 97.656066 
L 653.302994 95.237971 
L 654.214262 94.374366 
L 656.036799 93.453187 
L 656.948068 92.992598 
L 657.859336 92.704729 
L 658.770604 92.071419 
L 660.593141 91.265387 
L 662.415678 90.229061 
L 663.326946 89.710898 
L 664.238214 89.480603 
L 665.149483 88.847293 
L 666.060751 88.501851 
L 666.97202 88.32913 
L 668.794556 87.638245 
L 671.528361 86.659493 
L 672.43963 86.026182 
L 673.350898 85.853461 
L 676.084703 84.932282 
L 676.995972 84.241398 
L 680.641045 82.974777 
L 682.463582 81.823304 
L 684.286119 81.017272 
L 686.108655 79.750651 
L 687.931192 79.174914 
L 688.842461 78.426456 
L 689.753729 78.253735 
L 690.664997 77.505278 
L 692.487534 76.526525 
L 694.310071 75.778067 
L 695.221339 74.914462 
L 696.132608 74.453873 
L 697.955144 73.935709 
L 698.866413 73.417546 
L 699.777681 73.302399 
L 702.511486 71.978204 
L 706.15656 70.941878 
L 707.067828 70.884304 
L 707.979096 70.711583 
L 708.890365 70.366141 
L 709.801633 70.19342 
L 711.62417 69.502536 
L 712.535438 69.444962 
L 715.269243 68.581357 
L 717.09178 67.545031 
L 718.914317 66.335984 
L 724.381927 63.860315 
L 725.293195 63.227005 
L 726.204464 62.766415 
L 727.115732 62.133105 
L 728.938269 61.730089 
L 729.849537 61.211926 
L 730.760806 60.521042 
L 742.607295 56.8939 
L 745.3411 56.203016 
L 746.252368 55.8 
L 747.163636 55.8 
L 747.163636 55.8 
" clip-path="url(#p70c82698ce)" style="fill: none; stroke: #1f77b4; stroke-width: 1.5; stroke-linecap: square"/>
   </g>
   <g id="line2d_38">
    <path d="M 139.347632 307.8 
L 141.170169 307.8 
L 142.992705 307.569705 
L 148.460316 307.512132 
L 151.194121 307.396984 
L 153.927926 307.339411 
L 155.750463 307.281837 
L 158.484268 307.281837 
L 159.395536 307.051542 
L 162.129341 306.993968 
L 166.685683 306.475805 
L 173.97583 306.07279 
L 174.887099 306.07279 
L 175.798367 305.900069 
L 178.532172 305.842495 
L 180.354709 305.6122 
L 183.999782 305.6122 
L 184.911051 305.497053 
L 189.467392 305.439479 
L 192.201198 305.324332 
L 200.402613 305.266758 
L 202.22515 305.209184 
L 205.870223 305.151611 
L 208.604028 305.036463 
L 212.249102 305.036463 
L 213.16037 304.921316 
L 216.805444 304.863742 
L 219.539249 304.748595 
L 225.918127 304.691021 
L 227.740664 304.633448 
L 231.385738 304.575874 
L 232.297006 304.460727 
L 233.208274 304.460727 
L 234.119543 304.288005 
L 239.587153 304.230432 
L 240.498421 304.115284 
L 244.143495 304.057711 
L 245.966032 304.000137 
L 248.699837 303.942563 
L 250.522373 303.88499 
L 252.34491 303.827416 
L 254.167447 303.654695 
L 257.81252 303.481974 
L 260.546326 303.4244 
L 262.368862 303.366827 
L 264.191399 303.366827 
L 265.102667 303.251679 
L 267.836473 303.251679 
L 269.659009 303.078958 
L 272.392814 302.963811 
L 276.949156 302.906237 
L 279.682961 302.618369 
L 281.505498 302.503221 
L 282.416766 302.3305 
L 286.06184 302.272927 
L 296.085792 301.69719 
L 297.908329 301.639616 
L 300.642134 301.524469 
L 301.553402 301.524469 
L 303.375939 301.351748 
L 305.198476 301.294174 
L 306.109744 301.294174 
L 307.021013 301.179027 
L 308.843549 301.121453 
L 313.399891 300.891158 
L 315.222428 300.833585 
L 317.956233 300.718437 
L 320.690038 300.660864 
L 322.512575 300.60329 
L 327.068917 300.60329 
L 330.71399 300.200274 
L 331.625259 300.200274 
L 333.447795 300.027553 
L 335.270332 299.969979 
L 339.826674 299.682111 
L 340.737942 299.451816 
L 342.560479 299.336669 
L 343.471747 299.106374 
L 346.205553 298.87608 
L 348.028089 298.473064 
L 349.850626 298.41549 
L 351.673163 298.41549 
L 352.584431 298.300343 
L 353.4957 298.300343 
L 356.229505 297.897327 
L 357.140773 297.667032 
L 373.543604 296.68828 
L 374.454872 296.68828 
L 378.099946 296.22769 
L 379.011214 296.22769 
L 380.833751 295.939822 
L 382.656287 295.767101 
L 384.478824 295.709527 
L 386.301361 295.709527 
L 387.212629 295.479232 
L 389.946434 295.364085 
L 391.768971 295.364085 
L 393.591508 295.191364 
L 394.502776 295.191364 
L 397.236581 294.788348 
L 398.14785 294.558053 
L 399.970386 294.50048 
L 401.792923 294.442906 
L 402.704192 294.327759 
L 407.260533 294.270185 
L 420.018291 293.521727 
L 421.840827 293.521727 
L 423.663364 293.349006 
L 425.485901 293.349006 
L 428.219706 293.061138 
L 431.86478 292.888417 
L 433.687316 292.830843 
L 435.509853 292.773269 
L 438.243658 292.715696 
L 444.622537 292.370254 
L 449.178879 292.31268 
L 451.001415 292.255106 
L 451.912684 292.255106 
L 452.823952 292.082385 
L 454.646489 292.024812 
L 460.114099 291.967238 
L 461.936636 291.909664 
L 466.492978 291.85209 
L 467.404246 291.679369 
L 472.871856 291.621796 
L 474.694393 291.564222 
L 476.51693 291.506648 
L 478.339467 291.449075 
L 480.162003 291.391501 
L 486.540882 291.046059 
L 492.008492 290.988485 
L 494.742297 290.758191 
L 496.564834 290.585469 
L 498.387371 290.527896 
L 500.209907 290.527896 
L 501.121176 290.412748 
L 503.854981 290.355175 
L 504.766249 290.12488 
L 508.411323 289.952159 
L 516.612738 289.894585 
L 521.16908 289.549143 
L 523.902885 289.261275 
L 528.459227 289.203701 
L 531.193032 288.915833 
L 536.660642 288.627964 
L 538.483179 288.570391 
L 542.128253 288.39767 
L 545.773326 288.340096 
L 548.507131 288.224949 
L 552.152205 288.167375 
L 554.88601 287.879507 
L 556.708547 287.821933 
L 560.35362 287.764359 
L 563.087425 287.534064 
L 563.998694 287.418917 
L 564.909962 287.418917 
L 566.732499 287.246196 
L 571.288841 287.188622 
L 573.111377 286.900754 
L 581.312793 286.84318 
L 583.135329 286.670459 
L 584.046598 286.555312 
L 585.869134 286.497738 
L 587.691671 286.440164 
L 588.60294 286.20987 
L 590.425476 286.152296 
L 591.336745 285.979575 
L 593.159281 285.979575 
L 595.893087 285.691707 
L 613.207186 284.65538 
L 615.029722 284.597807 
L 616.852259 284.540233 
L 627.78748 284.482659 
L 630.521285 284.367512 
L 631.432553 284.367512 
L 632.343821 284.194791 
L 634.166358 284.137217 
L 638.7227 284.079644 
L 641.456505 283.964496 
L 646.012847 283.906923 
L 648.746652 283.791775 
L 650.569189 283.791775 
L 652.391726 283.56148 
L 654.214262 283.503907 
L 660.593141 283.158465 
L 662.415678 283.158465 
L 664.238214 282.985744 
L 670.617093 282.92817 
L 672.43963 282.755449 
L 675.173435 282.640302 
L 679.729777 282.582728 
L 681.552314 282.525154 
L 685.197387 282.467581 
L 687.019924 282.410007 
L 688.842461 282.352433 
L 690.664997 282.294859 
L 696.132608 282.237286 
L 700.688949 282.006991 
L 706.15656 281.949417 
L 710.712901 281.719123 
L 715.269243 281.719123 
L 716.180512 281.546402 
L 717.09178 281.546402 
L 718.914317 281.373681 
L 723.470659 281.316107 
L 725.293195 281.258533 
L 732.583342 281.20096 
L 734.405879 281.143386 
L 747.163636 281.085812 
L 747.163636 281.085812 
" clip-path="url(#p70c82698ce)" style="fill: none; stroke: #ff7f0e; stroke-width: 1.5; stroke-linecap: square"/>
   </g>
   <g id="patch_3">
    <path d="M 108 320.4 
L 108 43.2 
" style="fill: none; stroke: #a9a9a9; stroke-width: 0.8; stroke-linejoin: miter; stroke-linecap: square"/>
   </g>
   <g id="patch_4">
    <path d="M 777.6 320.4 
L 777.6 43.2 
" style="fill: none"/>
   </g>
   <g id="patch_5">
    <path d="M 108 320.4 
L 777.6 320.4 
" style="fill: none; stroke: #a9a9a9; stroke-width: 0.8; stroke-linejoin: miter; stroke-linecap: square"/>
   </g>
   <g id="patch_6">
    <path d="M 108 43.2 
L 777.6 43.2 
" style="fill: none"/>
   </g>
   <g id="text_19">
    <!-- get_subscribe history -->
    <g style="fill: #a9a9a9" transform="translate(378.6075 37.2) scale(0.12 -0.12)">
     <defs>
      <path id="DejaVuSans-67" d="M 2906 1791 
Q 2906 2416 2648 2759 
Q 2391 3103 1925 3103 
Q 1463 3103 1205 2759 
Q 947 2416 947 1791 
Q 947 1169 1205 825 
Q 1463 481 1925 481 
Q 2391 481 2648 825 
Q 2906 1169 2906 1791 
z
M 3481 434 
Q 3481 -459 3084 -895 
Q 2688 -1331 1869 -1331 
Q 1566 -1331 1297 -1286 
Q 1028 -1241 775 -1147 
L 775 -588 
Q 1028 -725 1275 -790 
Q 1522 -856 1778 -856 
Q 2344 -856 2625 -561 
Q 2906 -266 2906 331 
L 2906 616 
Q 2728 306 2450 153 
Q 2172 0 1784 0 
Q 1141 0 747 490 
Q 353 981 353 1791 
Q 353 2603 747 3093 
Q 1141 3584 1784 3584 
Q 2172 3584 2450 3431 
Q 2728 3278 2906 2969 
L 2906 3500 
L 3481 3500 
L 3481 434 
z
" transform="scale(0.015625)"/>
      <path id="DejaVuSans-65" d="M 3597 1894 
L 3597 1613 
L 953 1613 
Q 991 1019 1311 708 
Q 1631 397 2203 397 
Q 2534 397 2845 478 
Q 3156 559 3463 722 
L 3463 178 
Q 3153 47 2828 -22 
Q 2503 -91 2169 -91 
Q 1331 -91 842 396 
Q 353 884 353 1716 
Q 353 2575 817 3079 
Q 1281 3584 2069 3584 
Q 2775 3584 3186 3129 
Q 3597 2675 3597 1894 
z
M 3022 2063 
Q 3016 2534 2758 2815 
Q 2500 3097 2075 3097 
Q 1594 3097 1305 2825 
Q 1016 2553 972 2059 
L 3022 2063 
z
" transform="scale(0.015625)"/>
      <path id="DejaVuSans-74" d="M 1172 4494 
L 1172 3500 
L 2356 3500 
L 2356 3053 
L 1172 3053 
L 1172 1153 
Q 1172 725 1289 603 
Q 1406 481 1766 481 
L 2356 481 
L 2356 0 
L 1766 0 
Q 1100 0 847 248 
Q 594 497 594 1153 
L 594 3053 
L 172 3053 
L 172 3500 
L 594 3500 
L 594 4494 
L 1172 4494 
z
" transform="scale(0.015625)"/>
      <path id="DejaVuSans-5f" d="M 3263 -1063 
L 3263 -1509 
L -63 -1509 
L -63 -1063 
L 3263 -1063 
z
" transform="scale(0.015625)"/>
      <path id="DejaVuSans-73" d="M 2834 3397 
L 2834 2853 
Q 2591 2978 2328 3040 
Q 2066 3103 1784 3103 
Q 1356 3103 1142 2972 
Q 928 2841 928 2578 
Q 928 2378 1081 2264 
Q 1234 2150 1697 2047 
L 1894 2003 
Q 2506 1872 2764 1633 
Q 3022 1394 3022 966 
Q 3022 478 2636 193 
Q 2250 -91 1575 -91 
Q 1294 -91 989 -36 
Q 684 19 347 128 
L 347 722 
Q 666 556 975 473 
Q 1284 391 1588 391 
Q 1994 391 2212 530 
Q 2431 669 2431 922 
Q 2431 1156 2273 1281 
Q 2116 1406 1581 1522 
L 1381 1569 
Q 847 1681 609 1914 
Q 372 2147 372 2553 
Q 372 3047 722 3315 
Q 1072 3584 1716 3584 
Q 2034 3584 2315 3537 
Q 2597 3491 2834 3397 
z
" transform="scale(0.015625)"/>
      <path id="DejaVuSans-75" d="M 544 1381 
L 544 3500 
L 1119 3500 
L 1119 1403 
Q 1119 906 1312 657 
Q 1506 409 1894 409 
Q 2359 409 2629 706 
Q 2900 1003 2900 1516 
L 2900 3500 
L 3475 3500 
L 3475 0 
L 2900 0 
L 2900 538 
Q 2691 219 2414 64 
Q 2138 -91 1772 -91 
Q 1169 -91 856 284 
Q 544 659 544 1381 
z
M 1991 3584 
L 1991 3584 
z
" transform="scale(0.015625)"/>
      <path id="DejaVuSans-62" d="M 3116 1747 
Q 3116 2381 2855 2742 
Q 2594 3103 2138 3103 
Q 1681 3103 1420 2742 
Q 1159 2381 1159 1747 
Q 1159 1113 1420 752 
Q 1681 391 2138 391 
Q 2594 391 2855 752 
Q 3116 1113 3116 1747 
z
M 1159 2969 
Q 1341 3281 1617 3432 
Q 1894 3584 2278 3584 
Q 2916 3584 3314 3078 
Q 3713 2572 3713 1747 
Q 3713 922 3314 415 
Q 2916 -91 2278 -91 
Q 1894 -91 1617 61 
Q 1341 213 1159 525 
L 1159 0 
L 581 0 
L 581 4863 
L 1159 4863 
L 1159 2969 
z
" transform="scale(0.015625)"/>
      <path id="DejaVuSans-63" d="M 3122 3366 
L 3122 2828 
Q 2878 2963 2633 3030 
Q 2388 3097 2138 3097 
Q 1578 3097 1268 2742 
Q 959 2388 959 1747 
Q 959 1106 1268 751 
Q 1578 397 2138 397 
Q 2388 397 2633 464 
Q 2878 531 3122 666 
L 3122 134 
Q 2881 22 2623 -34 
Q 2366 -91 2075 -91 
Q 1284 -91 818 406 
Q 353 903 353 1747 
Q 353 2603 823 3093 
Q 1294 3584 2113 3584 
Q 2378 3584 2631 3529 
Q 2884 3475 3122 3366 
z
" transform="scale(0.015625)"/>
      <path id="DejaVuSans-72" d="M 2631 2963 
Q 2534 3019 2420 3045 
Q 2306 3072 2169 3072 
Q 1681 3072 1420 2755 
Q 1159 2438 1159 1844 
L 1159 0 
L 581 0 
L 581 3500 
L 1159 3500 
L 1159 2956 
Q 1341 3275 1631 3429 
Q 1922 3584 2338 3584 
Q 2397 3584 2469 3576 
Q 2541 3569 2628 3553 
L 2631 2963 
z
" transform="scale(0.015625)"/>
      <path id="DejaVuSans-69" d="M 603 3500 
L 1178 3500 
L 1178 0 
L 603 0 
L 603 3500 
z
M 603 4863 
L 1178 4863 
L 1178 4134 
L 603 4134 
L 603 4863 
z
" transform="scale(0.015625)"/>
      <path id="DejaVuSans-20" transform="scale(0.015625)"/>
      <path id="DejaVuSans-68" d="M 3513 2113 
L 3513 0 
L 2938 0 
L 2938 2094 
Q 2938 2591 2744 2837 
Q 2550 3084 2163 3084 
Q 1697 3084 1428 2787 
Q 1159 2491 1159 1978 
L 1159 0 
L 581 0 
L 581 4863 
L 1159 4863 
L 1159 2956 
Q 1366 3272 1645 3428 
Q 1925 3584 2291 3584 
Q 2894 3584 3203 3211 
Q 3513 2838 3513 2113 
z
" transform="scale(0.015625)"/>
      <path id="DejaVuSans-6f" d="M 1959 3097 
Q 1497 3097 1228 2736 
Q 959 2375 959 1747 
Q 959 1119 1226 758 
Q 1494 397 1959 397 
Q 2419 397 2687 759 
Q 2956 1122 2956 1747 
Q 2956 2369 2687 2733 
Q 2419 3097 1959 3097 
z
M 1959 3584 
Q 2709 3584 3137 3096 
Q 3566 2609 3566 1747 
Q 3566 888 3137 398 
Q 2709 -91 1959 -91 
Q 1206 -91 779 398 
Q 353 888 353 1747 
Q 353 2609 779 3096 
Q 1206 3584 1959 3584 
z
" transform="scale(0.015625)"/>
      <path id="DejaVuSans-79" d="M 2059 -325 
Q 1816 -950 1584 -1140 
Q 1353 -1331 966 -1331 
L 506 -1331 
L 506 -850 
L 844 -850 
Q 1081 -850 1212 -737 
Q 1344 -625 1503 -206 
L 1606 56 
L 191 3500 
L 800 3500 
L 1894 763 
L 2988 3500 
L 3597 3500 
L 2059 -325 
z
" transform="scale(0.015625)"/>
     </defs>
     <use xlink:href="#DejaVuSans-67"/>
     <use xlink:href="#DejaVuSans-65" x="63.476562"/>
     <use xlink:href="#DejaVuSans-74" x="125"/>
     <use xlink:href="#DejaVuSans-5f" x="164.208984"/>
     <use xlink:href="#DejaVuSans-73" x="214.208984"/>
     <use xlink:href="#DejaVuSans-75" x="266.308594"/>
     <use xlink:href="#DejaVuSans-62" x="329.6875"/>
     <use xlink:href="#DejaVuSans-73" x="393.164062"/>
     <use xlink:href="#DejaVuSans-63" x="445.263672"/>
     <use xlink:href="#DejaVuSans-72" x="500.244141"/>
     <use xlink:href="#DejaVuSans-69" x="541.357422"/>
     <use xlink:href="#DejaVuSans-62" x="569.140625"/>
     <use xlink:href="#DejaVuSans-65" x="632.617188"/>
     <use xlink:href="#DejaVuSans-20" x="694.140625"/>
     <use xlink:href="#DejaVuSans-68" x="725.927734"/>
     <use xlink:href="#DejaVuSans-69" x="789.306641"/>
     <use xlink:href="#DejaVuSans-73" x="817.089844"/>
     <use xlink:href="#DejaVuSans-74" x="869.189453"/>
     <use xlink:href="#DejaVuSans-6f" x="908.398438"/>
     <use xlink:href="#DejaVuSans-72" x="969.580078"/>
     <use xlink:href="#DejaVuSans-79" x="1010.693359"/>
    </g>
   </g>
   <g id="legend_1">
    <g id="line2d_39">
     <path d="M 815.08 328.498438 
L 825.08 328.498438 
L 835.08 328.498438 
" style="fill: none; stroke: #1f77b4; stroke-width: 1.5; stroke-linecap: square"/>
    </g>
    <g id="text_20">
     <!-- star -->
     <g style="fill: #a9a9a9" transform="translate(843.08 331.998438) scale(0.1 -0.1)">
      <defs>
       <path id="DejaVuSans-61" d="M 2194 1759 
Q 1497 1759 1228 1600 
Q 959 1441 959 1056 
Q 959 750 1161 570 
Q 1363 391 1709 391 
Q 2188 391 2477 730 
Q 2766 1069 2766 1631 
L 2766 1759 
L 2194 1759 
z
M 3341 1997 
L 3341 0 
L 2766 0 
L 2766 531 
Q 2569 213 2275 61 
Q 1981 -91 1556 -91 
Q 1019 -91 701 211 
Q 384 513 384 1019 
Q 384 1609 779 1909 
Q 1175 2209 1959 2209 
L 2766 2209 
L 2766 2266 
Q 2766 2663 2505 2880 
Q 2244 3097 1772 3097 
Q 1472 3097 1187 3025 
Q 903 2953 641 2809 
L 641 3341 
Q 956 3463 1253 3523 
Q 1550 3584 1831 3584 
Q 2591 3584 2966 3190 
Q 3341 2797 3341 1997 
z
" transform="scale(0.015625)"/>
      </defs>
      <use xlink:href="#DejaVuSans-73"/>
      <use xlink:href="#DejaVuSans-74" x="52.099609"/>
      <use xlink:href="#DejaVuSans-61" x="91.308594"/>
      <use xlink:href="#DejaVuSans-72" x="152.587891"/>
     </g>
    </g>
    <g id="line2d_40">
     <path d="M 815.08 343.176562 
L 825.08 343.176562 
L 835.08 343.176562 
" style="fill: none; stroke: #ff7f0e; stroke-width: 1.5; stroke-linecap: square"/>
    </g>
    <g id="text_21">
     <!-- fork -->
     <g style="fill: #a9a9a9" transform="translate(843.08 346.676562) scale(0.1 -0.1)">
      <defs>
       <path id="DejaVuSans-66" d="M 2375 4863 
L 2375 4384 
L 1825 4384 
Q 1516 4384 1395 4259 
Q 1275 4134 1275 3809 
L 1275 3500 
L 2222 3500 
L 2222 3053 
L 1275 3053 
L 1275 0 
L 697 0 
L 697 3053 
L 147 3053 
L 147 3500 
L 697 3500 
L 697 3744 
Q 697 4328 969 4595 
Q 1241 4863 1831 4863 
L 2375 4863 
z
" transform="scale(0.015625)"/>
       <path id="DejaVuSans-6b" d="M 581 4863 
L 1159 4863 
L 1159 1991 
L 2875 3500 
L 3609 3500 
L 1753 1863 
L 3688 0 
L 2938 0 
L 1159 1709 
L 1159 0 
L 581 0 
L 581 4863 
z
" transform="scale(0.015625)"/>
      </defs>
      <use xlink:href="#DejaVuSans-66"/>
      <use xlink:href="#DejaVuSans-6f" x="35.205078"/>
      <use xlink:href="#DejaVuSans-72" x="96.386719"/>
      <use xlink:href="#DejaVuSans-6b" x="137.5"/>
     </g>
    </g>
   </g>
  </g>
 </g>
 <defs>
  <clipPath id="p70c82698ce">
   <rect x="108" y="43.2" width="669.6" height="277.2"/>
  </clipPath>
 </defs>
</svg>
